<svg width="24" height="24" viewBox="0 0 24 24" fill="none" xmlns="http://www.w3.org/2000/svg">
<path fill-rule="evenodd" clip-rule="evenodd" d="M19.9438 8.70006C19.8831 7.41863 19.5904 6.28355 18.6516 5.34835C17.7165 4.41316 16.5814 4.12047 15.2999 4.05622C13.9793 3.98126 10.0207 3.98126 8.70006 4.05622C7.4222 4.1169 6.28712 4.40959 5.34835 5.34479C4.40959 6.27998 4.12047 7.41506 4.05622 8.69649C3.98126 10.0172 3.98126 13.9757 4.05622 15.2964C4.1169 16.5778 4.40959 17.7129 5.34835 18.6481C6.28712 19.5833 7.41863 19.876 8.70006 19.9402C10.0207 20.0152 13.9793 20.0152 15.2999 19.9402C16.5814 19.8795 17.7165 19.5868 18.6516 18.6481C19.5868 17.7129 19.8795 16.5778 19.9438 15.2964C20.0187 13.9757 20.0187 10.0207 19.9438 8.70006ZM16.2708 8.68578C16.7991 8.68578 17.2274 8.26101 17.2274 7.72917C17.2274 7.20089 16.7991 6.77256 16.2708 6.77256C15.7426 6.77256 15.3142 7.20089 15.3142 7.72917C15.3142 8.25745 15.739 8.68578 16.2708 8.68578ZM12.0018 7.89693C9.73162 7.89693 7.9005 9.72805 7.9005 11.9982C7.9005 14.2684 9.73162 16.0995 12.0018 16.0995C14.2719 16.0995 16.1031 14.2684 16.1031 11.9982C16.1031 9.72805 14.2719 7.89693 12.0018 7.89693ZM12.0018 14.6646C10.5347 14.6646 9.33542 13.4688 9.33542 11.9982C9.33542 10.5276 10.5312 9.33185 12.0018 9.33185C13.4724 9.33185 14.6682 10.5276 14.6682 11.9982C14.6682 13.4688 13.4688 14.6646 12.0018 14.6646ZM16.717 18.234C17.4202 17.952 17.9592 17.4131 18.2376 16.7134C18.5958 15.8133 18.5759 13.8444 18.5629 12.5681C18.5608 12.3564 18.5588 12.1638 18.5588 11.9982C18.5588 11.8326 18.5608 11.64 18.5629 11.4284C18.5759 10.1527 18.5958 8.18613 18.2376 7.28299C17.9556 6.57981 17.4166 6.04083 16.717 5.76241C15.8141 5.40615 13.8356 5.42513 12.5597 5.43737C12.3527 5.43935 12.1642 5.44116 12.0018 5.44116C11.8362 5.44116 11.6436 5.43921 11.4319 5.43706C10.1563 5.42414 8.1897 5.40421 7.28656 5.76241C6.58338 6.04439 6.04439 6.58338 5.76598 7.28299C5.40972 8.18592 5.4287 10.1644 5.44094 11.4403C5.44292 11.6473 5.44473 11.8358 5.44473 11.9982C5.44473 12.1638 5.44278 12.3564 5.44063 12.5681C5.42771 13.8437 5.40778 15.8103 5.76598 16.7134C6.04796 17.4166 6.58695 17.9556 7.28656 18.234C8.18949 18.5903 10.1679 18.5713 11.4439 18.5591C11.6509 18.5571 11.8394 18.5553 12.0018 18.5553C12.1674 18.5553 12.36 18.5572 12.5716 18.5594C13.8473 18.5723 15.8139 18.5922 16.717 18.234Z" fill="white"/>
</svg>
