<svg width="280" height="280" viewBox="0 0 280 280" fill="none" xmlns="http://www.w3.org/2000/svg">
<path d="M46.667 85.7041C46.667 85.006 47.031 84.3584 47.6274 83.9955L138.961 28.4239C139.599 28.0354 140.401 28.0354 141.04 28.4239L232.373 83.9955C232.97 84.3584 233.334 85.006 233.334 85.7041V188.296C233.334 188.994 232.97 189.642 232.373 190.004L141.04 245.576C140.401 245.965 139.599 245.965 138.961 245.576L47.6274 190.004C47.031 189.642 46.667 188.994 46.667 188.296L46.667 85.7041Z" stroke="white" stroke-width="8" stroke-linecap="round" stroke-linejoin="round"/>
<path d="M128.332 176.401C127.565 176.209 126.764 176.099 126.043 175.817C124.373 175.173 123.32 173.965 122.897 172.445C122.725 171.821 122.863 171.066 123.103 170.432C124.236 167.504 125.368 164.575 126.65 161.696C133.24 146.942 139.865 132.198 146.501 117.443C148.068 113.951 153.228 112.954 156.283 115.933C157.542 117.161 158.102 118.53 157.416 120.181C156.054 123.441 154.807 126.743 153.354 129.973C146.947 144.295 140.471 158.597 134.052 172.918C133.148 174.931 131.592 176.068 129.178 176.34C129.121 176.35 129.075 176.38 129.03 176.401C128.789 176.401 128.56 176.401 128.332 176.401Z" fill="white" fill-opacity="0.7"/>
<path d="M196.279 146.55C196.005 148.009 194.895 149.016 193.785 150.002C186.554 156.454 179.277 162.865 172.058 169.326C170.445 170.775 168.591 170.946 166.554 170.393C164.449 169.829 163.248 168.481 162.767 166.639C162.355 165.038 162.722 163.619 164.083 162.392C168.328 158.547 172.538 154.672 176.76 150.807C178.351 149.348 179.941 147.879 181.531 146.409C181.691 146.268 181.829 146.107 182.023 145.916C181.749 145.644 181.486 145.383 181.211 145.141C176.577 141.065 171.943 136.999 167.321 132.923C166.085 131.836 164.941 130.658 163.66 129.612C161.246 127.619 162.092 123.986 164.587 122.446C166.131 121.5 167.802 121.158 169.621 121.58C170.101 121.691 170.582 121.922 170.948 122.214C172.927 123.784 174.918 125.344 176.817 126.995C182.584 131.987 188.316 137.009 194.06 142.021C195.078 142.907 196.073 143.813 196.256 145.151C196.268 145.614 196.268 146.087 196.279 146.55Z" fill="white" fill-opacity="0.7"/>
<path d="M98.2161 146.49C98.9827 147.134 99.6348 147.677 100.264 148.231C105.058 152.398 109.852 156.564 114.623 160.751C115.55 161.566 116.454 162.422 117.232 163.338C119.623 166.135 117.609 170.433 113.673 170.976C112.987 171.067 112.266 171.047 111.58 171.017C110.676 170.976 109.898 170.654 109.234 170.101C104.967 166.538 100.653 163.016 96.4427 159.412C93.0332 156.494 89.738 153.464 86.42 150.475C85.5848 149.72 84.7267 148.976 84.4636 147.879C84.086 146.339 84.2233 144.93 85.5276 143.722C89.5435 140.038 93.5137 136.305 97.5868 132.661C101.202 129.431 104.909 126.26 108.628 123.13C110.733 121.359 113.719 121.419 115.927 123.13C117.644 124.459 118.33 126.633 117.575 128.525C117.415 128.927 117.174 129.34 116.854 129.642C114.509 131.886 112.152 134.121 109.749 136.315C106.122 139.616 102.449 142.867 98.7882 146.137C98.6394 146.268 98.4449 146.349 98.2161 146.49Z" fill="white" fill-opacity="0.7"/>
</svg>