<svg width="95" height="110" viewBox="0 0 95 110" fill="none" xmlns="http://www.w3.org/2000/svg">
<g filter="url(#filter0_d_811_318)">
<path d="M46.6324 60.2451C47.2068 59.9461 47.8905 59.9437 48.467 60.2387L77.6356 75.167C79.0874 75.91 79.0874 77.9848 77.6356 78.7278L48.467 93.656C47.8905 93.9511 47.2068 93.9487 46.6324 93.6497L17.954 78.7214C16.5186 77.9742 16.5186 75.9205 17.954 75.1733L46.6324 60.2451Z" fill="black" fill-opacity="0.01"/>
</g>
<path d="M13.8306 25.4497C13.8306 21.8814 15.732 18.5834 18.8202 16.7955L42.8202 2.90074C45.9195 1.10642 49.7417 1.10642 52.8409 2.90074L76.8409 16.7955C79.9291 18.5834 81.8306 21.8814 81.8306 25.4497V53.2871C81.8306 56.8555 79.9291 60.1535 76.8409 61.9414L52.8409 75.8361C49.7417 77.6304 45.9195 77.6304 42.8202 75.8361L18.8202 61.9414C15.732 60.1535 13.8306 56.8555 13.8306 53.2871V25.4497Z" fill="url(#paint0_radial_811_318)"/>
<g clip-path="url(#clip0_811_318)">
<path d="M78.9515 30.5762C78.2117 31.7576 77.2988 32.6239 76.1498 33.2855C68.7206 37.5701 61.3071 41.8704 53.8779 46.155C51.8947 47.2892 50.9345 48.9431 50.9345 51.2429C50.966 57.3863 50.9345 63.5296 50.9503 69.6729C50.9503 70.2873 50.667 71.0906 51.4067 71.4687C52.0993 71.831 52.7131 71.3111 53.2955 70.9804C60.8979 66.5855 68.5002 62.1749 76.1183 57.7958C78.0386 56.6932 78.9673 55.1495 78.9515 52.9284C78.92 45.7297 78.9358 38.5467 78.9358 31.348C78.9515 31.0802 78.9515 30.8282 78.9515 30.5762Z" fill="#F9F9FA"/>
<path d="M48.8712 44.7075C48.8712 44.298 48.8712 44.1089 48.8712 43.9357C48.8712 31.6018 48.8712 19.2679 48.8712 6.93395C48.8712 6.66617 48.8712 6.39838 48.824 6.14635C48.6508 5.26423 48.0212 4.87043 47.1398 5.05945C46.7778 5.13821 46.463 5.31149 46.1325 5.50051C41.9299 7.92634 37.7274 10.3522 33.5406 12.7937C29.5269 15.1093 25.4975 17.4249 21.4838 19.7562C18.0211 21.7724 17.9424 26.0728 21.3422 28.0575C28.9445 32.4681 36.5626 36.8315 44.1492 41.2578C45.7704 42.2029 47.612 42.8645 48.8712 44.7075Z" fill="#F9F9FA"/>
<g clip-path="url(#clip1_811_318)">
<path d="M25.1823 56.8104C25.0607 56.6856 24.9225 56.5742 24.8207 56.435C24.5837 56.1143 24.5335 55.7405 24.6411 55.3689C24.6857 55.2165 24.805 55.0699 24.9289 54.9605C25.5056 54.4575 26.0823 53.9544 26.6809 53.4785C29.7538 51.041 32.8319 48.6095 35.9134 46.1771C36.6421 45.601 37.7434 45.9524 37.9542 46.9244C38.041 47.325 37.9781 47.6794 37.644 47.9576C36.9829 48.5067 36.3385 49.077 35.6637 49.6096C32.6791 51.9744 29.6839 54.3274 26.6971 56.691C26.277 57.023 25.8415 57.0961 25.3503 56.8901C25.3382 56.886 25.3258 56.8875 25.3146 56.8868C25.2691 56.8605 25.2257 56.8354 25.1823 56.8104Z" fill="white"/>
<path d="M41.7517 57.8561C41.5193 58.1385 41.1845 58.2325 40.8522 58.3222C38.6842 58.912 36.5125 59.4881 34.3454 60.0813C33.8605 60.215 33.488 60.0488 33.1704 59.7074C32.841 59.3564 32.78 58.9362 32.9165 58.4893C33.0363 58.1016 33.2811 57.8379 33.6909 57.724C34.9707 57.3655 36.2477 56.9968 37.5257 56.6314C38.0075 56.4931 38.4905 56.3525 38.9736 56.212C39.0214 56.1994 39.0673 56.1799 39.1278 56.1603C39.1094 56.072 39.0918 55.9872 39.0696 55.9055C38.6951 54.5257 38.3193 53.1482 37.947 51.7697C37.8471 51.4018 37.7758 51.0245 37.6622 50.6602C37.4509 49.9694 38.0605 49.2842 38.7236 49.2275C39.1333 49.194 39.4922 49.3036 39.7848 49.5932C39.8622 49.6694 39.9247 49.7716 39.958 49.8741C40.1392 50.4269 40.3237 50.9787 40.4797 51.5399C40.9557 53.2397 41.4215 54.9421 41.8907 56.6437C41.9743 56.9447 42.051 57.2476 41.9203 57.5542C41.8652 57.6545 41.8067 57.7558 41.7517 57.8561Z" fill="white"/>
<path d="M23.171 47.1113C23.2367 47.3331 23.2932 47.5208 23.344 47.7082C23.7377 49.1248 24.1314 50.5415 24.5183 51.9599C24.5932 52.2358 24.6588 52.5179 24.6931 52.7991C24.8005 53.6598 23.8876 54.3594 23.0744 54.045C22.9331 53.9893 22.799 53.9061 22.6726 53.8245C22.5062 53.717 22.3985 53.5629 22.3412 53.3718C21.9726 52.142 21.5904 50.9159 21.2376 49.6837C20.9521 48.6858 20.7019 47.6766 20.4425 46.6736C20.3774 46.4206 20.3068 46.1672 20.3926 45.9036C20.5113 45.5326 20.7115 45.246 21.108 45.1302C22.3245 44.7811 23.5386 44.4162 24.7609 44.082C25.8456 43.786 26.9401 43.513 28.0318 43.2499C28.6498 43.1011 29.2084 43.4408 29.4154 44.0487C29.5765 44.521 29.438 45.0615 29.061 45.3839C28.9809 45.4526 28.8843 45.5146 28.7863 45.5442C28.0643 45.768 27.3414 45.9884 26.6147 46.1951C25.5192 46.5049 24.4213 46.7989 23.323 47.0985C23.2786 47.1102 23.2318 47.1062 23.171 47.1113Z" fill="white"/>
</g>
</g>
<defs>
<filter id="filter0_d_811_318" x="0.877441" y="44.0192" width="93.8472" height="65.8564" filterUnits="userSpaceOnUse" color-interpolation-filters="sRGB">
<feFlood flood-opacity="0" result="BackgroundImageFix"/>
<feColorMatrix in="SourceAlpha" type="matrix" values="0 0 0 0 0 0 0 0 0 0 0 0 0 0 0 0 0 0 127 0" result="hardAlpha"/>
<feOffset/>
<feGaussianBlur stdDeviation="8"/>
<feColorMatrix type="matrix" values="0 0 0 0 0.611765 0 0 0 0 0.152941 0 0 0 0 0.690196 0 0 0 0.4 0"/>
<feBlend mode="normal" in2="BackgroundImageFix" result="effect1_dropShadow_811_318"/>
<feBlend mode="normal" in="SourceGraphic" in2="effect1_dropShadow_811_318" result="shape"/>
</filter>
<radialGradient id="paint0_radial_811_318" cx="0" cy="0" r="1" gradientUnits="userSpaceOnUse" gradientTransform="translate(74.1357 12.5263) rotate(133.603) scale(31.1362 64.1156)">
<stop stop-color="#F06292"/>
<stop offset="1" stop-color="#9C27B0"/>
</radialGradient>
<clipPath id="clip0_811_318">
<rect width="60.1263" height="66.5684" fill="white" transform="translate(18.8408 5.0105)"/>
</clipPath>
<clipPath id="clip1_811_318">
<rect width="24.5164" height="15.3828" fill="white" transform="translate(24.522 38.6666) rotate(30)"/>
</clipPath>
</defs>
</svg>
