<svg width="204" height="237" viewBox="0 0 204 237" fill="none" xmlns="http://www.w3.org/2000/svg">
<path d="M0 64.8182C0 61.2498 1.90147 57.9518 4.98964 56.1639L96.9896 2.90073C100.089 1.10642 103.911 1.10642 107.01 2.90074L199.01 56.1639C202.099 57.9518 204 61.2498 204 64.8182V171.392C204 174.961 202.099 178.259 199.01 180.047L107.01 233.31C103.911 235.104 100.089 235.104 96.9896 233.31L4.98963 180.047C1.90146 178.259 0 174.961 0 171.392V64.8182Z" fill="url(#paint0_radial_810_146)"/>
<g clip-path="url(#clip0_810_146)">
<path d="M195.363 91.7288C193.144 95.273 190.405 97.8721 186.958 99.8568C164.67 112.711 142.43 125.612 120.142 138.465C114.192 141.868 111.312 146.83 111.312 153.729C111.406 172.159 111.312 190.589 111.359 209.019C111.359 210.862 110.509 213.272 112.728 214.406C114.806 215.493 116.648 213.934 118.395 212.941C141.202 199.757 164.009 186.525 186.863 173.388C192.624 170.08 195.41 165.449 195.363 158.786C195.268 137.189 195.316 115.64 195.316 94.0443C195.363 93.241 195.363 92.4849 195.363 91.7288Z" fill="#F9F9FA"/>
<path d="M105.122 134.123C105.122 132.894 105.122 132.327 105.122 131.807C105.122 94.8053 105.122 57.8036 105.122 20.8019C105.122 19.9985 105.122 19.1951 104.981 18.439C104.461 15.7927 102.573 14.6113 99.9282 15.1784C98.8422 15.4146 97.8978 15.9345 96.9062 16.5015C84.2985 23.779 71.6909 31.0565 59.1305 38.3812C47.0895 45.3279 35.0013 52.2746 22.9603 59.2685C12.572 65.3173 12.3359 78.2183 22.5353 84.1726C45.3424 97.4044 68.1967 110.494 90.9565 123.773C95.8201 126.609 101.345 128.594 105.122 134.123Z" fill="#F9F9FA"/>
<g clip-path="url(#clip1_810_146)">
<path d="M34.0558 170.431C33.6908 170.057 33.2764 169.723 32.971 169.305C32.2599 168.343 32.1092 167.222 32.432 166.107C32.5658 165.65 32.9237 165.21 33.2955 164.882C35.0255 163.373 36.7556 161.864 38.5516 160.436C47.7701 153.123 57.0044 145.829 66.2489 138.531C68.4352 136.803 71.739 137.857 72.3715 140.774C72.6319 141.975 72.4431 143.038 71.4407 143.873C69.4574 145.52 67.5242 147.231 65.4999 148.829C56.546 155.923 47.5605 162.982 38.6001 170.073C37.3397 171.069 36.0332 171.289 34.5596 170.671C34.5234 170.658 34.4861 170.663 34.4526 170.661C34.316 170.582 34.1859 170.507 34.0558 170.431Z" fill="white"/>
<path d="M83.7644 173.569C83.0671 174.416 82.0628 174.698 81.066 174.967C74.5619 176.736 68.0468 178.465 61.5455 180.244C60.0908 180.645 58.9733 180.147 58.0205 179.122C57.0323 178.069 56.8492 176.809 57.2589 175.468C57.6181 174.305 58.3525 173.514 59.582 173.172C63.4214 172.097 67.2524 170.991 71.0862 169.895C72.5317 169.479 73.9809 169.058 75.4301 168.636C75.5735 168.598 75.7113 168.54 75.8928 168.481C75.8374 168.216 75.7848 167.962 75.7182 167.717C74.5946 163.577 73.4673 159.445 72.3502 155.309C72.0506 154.206 71.8366 153.074 71.496 151.981C70.8621 149.908 72.6908 147.853 74.6801 147.683C75.9092 147.582 76.986 147.911 77.8638 148.78C78.096 149.009 78.2834 149.315 78.3834 149.623C78.9268 151.281 79.4804 152.936 79.9484 154.62C81.3765 159.719 82.7739 164.827 84.1815 169.931C84.4321 170.834 84.6623 171.743 84.2701 172.663C84.1049 172.964 83.9295 173.268 83.7644 173.569Z" fill="white"/>
<path d="M28.0228 141.334C28.2199 142 28.3892 142.563 28.5418 143.125C29.7229 147.375 30.904 151.625 32.0646 155.88C32.2893 156.708 32.4861 157.554 32.5889 158.398C32.9113 160.98 30.1727 163.079 27.733 162.136C27.3091 161.968 26.9066 161.719 26.5275 161.474C26.0284 161.151 25.7054 160.689 25.5333 160.116C24.4276 156.426 23.2809 152.748 22.2227 149.052C21.3661 146.058 20.6156 143.03 19.8372 140.021C19.6421 139.262 19.4303 138.502 19.6874 137.711C20.0437 136.598 20.6442 135.738 21.8338 135.391C25.4833 134.344 29.1255 133.249 32.7926 132.246C36.0465 131.359 39.33 130.54 42.6052 129.75C44.4591 129.304 46.1348 130.323 46.7561 132.147C47.2394 133.563 46.8237 135.185 45.6927 136.152C45.4523 136.358 45.1627 136.544 44.8686 136.633C42.7026 137.304 40.5338 137.966 38.354 138.586C35.0675 139.515 31.7736 140.397 28.4788 141.296C28.3457 141.331 28.2052 141.319 28.0228 141.334Z" fill="white"/>
</g>
</g>
<defs>
<radialGradient id="paint0_radial_810_146" cx="0" cy="0" r="1" gradientUnits="userSpaceOnUse" gradientTransform="translate(180.915 37.5788) rotate(133.603) scale(93.4086 192.347)">
<stop stop-color="#F06292"/>
<stop offset="1" stop-color="#9C27B0"/>
</radialGradient>
<clipPath id="clip0_810_146">
<rect width="180.379" height="199.705" fill="white" transform="translate(15.0312 15.0317)"/>
</clipPath>
<clipPath id="clip1_810_146">
<rect width="73.5491" height="46.1485" fill="white" transform="translate(32.0742 116) rotate(30)"/>
</clipPath>
</defs>
</svg>
