<svg width="24" height="24" viewBox="0 0 24 24" fill="none" xmlns="http://www.w3.org/2000/svg">
<path d="M19.8886 8.0894C19.9006 8.25995 19.9006 8.43054 19.9006 8.60109C19.9006 13.8031 16.0188 19.797 8.92415 19.797C6.73842 19.797 4.70798 19.1513 3 18.0305C3.31055 18.0671 3.60912 18.0793 3.93162 18.0793C5.73511 18.0793 7.39533 17.458 8.7211 16.3981C7.02507 16.3615 5.60375 15.2285 5.11404 13.6691C5.35294 13.7056 5.5918 13.73 5.84265 13.73C6.18901 13.73 6.5354 13.6812 6.85787 13.596C5.09018 13.2305 3.76437 11.6468 3.76437 9.73408V9.68536C4.27794 9.97775 4.87518 10.1605 5.50816 10.1848C4.46904 9.47821 3.78827 8.27214 3.78827 6.90766C3.78827 6.17671 3.97934 5.50666 4.31379 4.92189C6.21287 7.3097 9.06746 8.86906 12.2684 9.03965C12.2087 8.74726 12.1728 8.44273 12.1728 8.13815C12.1728 5.9696 13.8928 4.20312 16.0307 4.20312C17.1415 4.20312 18.1447 4.67825 18.8494 5.44576C19.7213 5.27521 20.5574 4.94626 21.2979 4.49551C21.0112 5.40924 20.4021 6.17675 19.6019 6.66403C20.3783 6.57879 21.1307 6.35945 21.8235 6.05491C21.298 6.83457 20.6411 7.52896 19.8886 8.0894Z" fill="white"/>
</svg>
