<svg width="24" height="24" viewBox="0 0 24 24" fill="none" xmlns="http://www.w3.org/2000/svg">
<path fill-rule="evenodd" clip-rule="evenodd" d="M20.1496 5.07787C21.047 5.32576 21.7538 6.05619 21.9937 6.98364C22.4296 8.6647 22.4296 12.1721 22.4296 12.1721C22.4296 12.1721 22.4296 15.6795 21.9937 17.3605C21.7538 18.288 21.047 18.988 20.1496 19.2358C18.5228 19.6863 12 19.6863 12 19.6863C12 19.6863 5.47711 19.6863 3.85037 19.2358C2.95291 18.988 2.24609 18.288 2.00619 17.3605C1.57031 15.6795 1.57031 12.1721 1.57031 12.1721C1.57031 12.1721 1.57031 8.6647 2.00619 6.98364C2.24609 6.05619 2.95291 5.32579 3.85037 5.07787C5.47711 4.62744 12 4.62744 12 4.62744C12 4.62744 18.5229 4.62744 20.1496 5.07787ZM9.86661 8.98764V15.3565L15.3185 12.1722L9.86661 8.98764Z" fill="white"/>
</svg>
